{
  "accessors": [
    {
      "bufferView": 2,
      "componentType": 5126,
      "count": 14543,
      "max": [
        38.82350158691406,
        39.91659927368164,
        217.41700744628906
      ],
      "min": [
        -51.12910079956055,
        -50.3468017578125,
        -0.15262100100517273
      ],
      "type": "VEC3"
    },
    {
      "bufferView": 2,
      "byteOffset": 174516,
      "componentType": 5126,
      "count": 14543,
      "max": [
        0.9999849200248718,
        0.9999799132347107,
        0.9999525547027588
      ],
      "min": [
        -0.9999921917915344,
        -0.9999929666519165,
        -0.9997140169143677
      ],
      "type": "VEC3"
    },
    {
      "bufferView": 3,
      "componentType": 5126,
      "count": 14543,
      "max": [
        0.9995653629302979,
        0.996460497379303,
        0.9999979138374329,
        1.0
      ],
      "min": [
        -0.999832808971405,
        -0.9996102452278137,
        -0.999692976474762,
        -1.0
      ],
      "type": "VEC4"
    },
    {
      "bufferView": 1,
      "componentType": 5126,
      "count": 14543,
      "max": [
        0.9984999895095825,
        0.9919646382331848
      ],
      "min": [
        0.001500000013038516,
        0.001500000013038516
      ],
      "type": "VEC2"
    },
    {
      "bufferView": 0,
      "componentType": 5125,
      "count": 80982,
      "type": "SCALAR"
    }
  ],
  "asset": {
    "extras": {
      "author": "Alexandr Zhilkin (https://sketchfab.com/allexandr007)",
      "license": "CC-BY-4.0 (http://creativecommons.org/licenses/by/4.0/)",
      "source": "https://sketchfab.com/3d-models/monument-to-soviet-soldier-a8dfa022f6da44789a471db942bf2f33",
      "title": "Monument to Soviet Soldier"
    },
    "generator": "Sketchfab-11.54.0",
    "version": "2.0"
  },
  "bufferViews": [
    {
      "buffer": 0,
      "byteLength": 323928,
      "name": "floatBufferViews",
      "target": 34963
    },
    {
      "buffer": 0,
      "byteLength": 116344,
      "byteOffset": 323928,
      "byteStride": 8,
      "name": "floatBufferViews",
      "target": 34962
    },
    {
      "buffer": 0,
      "byteLength": 349032,
      "byteOffset": 440272,
      "byteStride": 12,
      "name": "floatBufferViews",
      "target": 34962
    },
    {
      "buffer": 0,
      "byteLength": 232688,
      "byteOffset": 789304,
      "byteStride": 16,
      "name": "floatBufferViews",
      "target": 34962
    }
  ],
  "buffers": [
    {
      "byteLength": 1021992,
      "uri": "scene.bin"
    }
  ],
  "images": [
    {
      "uri": "textures/mat_soldat_baseColor.jpeg"
    },
    {
      "uri": "textures/mat_soldat_metallicRoughness.png"
    },
    {
      "uri": "textures/mat_soldat_normal.png"
    }
  ],
  "materials": [
    {
      "doubleSided": true,
      "name": "mat_soldat",
      "normalTexture": {
        "index": 2
      },
      "occlusionTexture": {
        "index": 1
      },
      "pbrMetallicRoughness": {
        "baseColorTexture": {
          "index": 0
        },
        "metallicRoughnessTexture": {
          "index": 1
        }
      }
    }
  ],
  "meshes": [
    {
      "name": "Soldat_mat_soldat_0",
      "primitives": [
        {
          "attributes": {
            "NORMAL": 1,
            "POSITION": 0,
            "TANGENT": 2,
            "TEXCOORD_0": 3
          },
          "indices": 4,
          "material": 0,
          "mode": 4
        }
      ]
    }
  ],
  "nodes": [
    {
      "children": [
        1
      ],
      "matrix": [
        1.0,
        0.0,
        0.0,
        0.0,
        0.0,
        2.220446049250313e-16,
        -1.0,
        0.0,
        0.0,
        1.0,
        2.220446049250313e-16,
        0.0,
        0.0,
        0.0,
        0.0,
        1.0
      ],
      "name": "Sketchfab_model"
    },
    {
      "children": [
        2
      ],
      "matrix": [
        0.009999999776482582,
        0.0,
        0.0,
        0.0,
        0.0,
        0.0,
        0.009999999776482582,
        0.0,
        0.0,
        -0.009999999776482582,
        0.0,
        0.0,
        0.0,
        0.0,
        0.0,
        1.0
      ],
      "name": "d04a01228aae414a9ae6989ff72f5f24.fbx"
    },
    {
      "children": [
        3
      ],
      "name": "RootNode"
    },
    {
      "children": [
        4
      ],
      "matrix": [
        1.0,
        0.0,
        0.0,
        0.0,
        0.0,
        2.220446049250313e-16,
        -1.0,
        0.0,
        0.0,
        1.0,
        2.220446049250313e-16,
        0.0,
        0.0,
        0.0,
        0.0,
        1.0
      ],
      "name": "Soldat"
    },
    {
      "mesh": 0,
      "name": "Soldat_mat_soldat_0"
    }
  ],
  "samplers": [
    {
      "magFilter": 9729,
      "minFilter": 9987,
      "wrapS": 10497,
      "wrapT": 10497
    }
  ],
  "scene": 0,
  "scenes": [
    {
      "name": "Sketchfab_Scene",
      "nodes": [
        0
      ]
    }
  ],
  "textures": [
    {
      "sampler": 0,
      "source": 0
    },
    {
      "sampler": 0,
      "source": 1
    },
    {
      "sampler": 0,
      "source": 2
    }
  ]
}
